<mxfile host="app.diagrams.net" modified="2023-08-09T14:04:11.765Z" agent="Mozilla/5.0 (Macintosh; Intel Mac OS X 10.15; rv:109.0) Gecko/20100101 Firefox/115.0" etag="8BhmNIbOhlb39DzjAHBr" version="21.6.6" type="device">
  <diagram name="Page-1" id="YuazmhlpRqca-3gpck8o">
    <mxGraphModel dx="954" dy="617" grid="1" gridSize="10" guides="1" tooltips="1" connect="1" arrows="1" fold="1" page="1" pageScale="1" pageWidth="850" pageHeight="1100" math="0" shadow="0">
      <root>
        <mxCell id="0" />
        <mxCell id="1" parent="0" />
        <mxCell id="QFvsml-NdJ4ukHGdI1pe-2" value="" style="rounded=0;whiteSpace=wrap;html=1;" vertex="1" parent="1">
          <mxGeometry x="78.55" y="77.5" width="614.45" height="60" as="geometry" />
        </mxCell>
        <mxCell id="QFvsml-NdJ4ukHGdI1pe-4" value="" style="rounded=0;whiteSpace=wrap;html=1;" vertex="1" parent="1">
          <mxGeometry x="89" y="83" width="193" height="49" as="geometry" />
        </mxCell>
        <mxCell id="QFvsml-NdJ4ukHGdI1pe-6" value="b&lt;sub&gt;12&lt;/sub&gt;" style="rounded=1;whiteSpace=wrap;html=1;fillColor=#fff2cc;strokeColor=#d6b656;" vertex="1" parent="1">
          <mxGeometry x="128.0025" y="106.7766666666667" width="25.543750000000003" height="18.45" as="geometry" />
        </mxCell>
        <mxCell id="QFvsml-NdJ4ukHGdI1pe-7" value="b&lt;sub&gt;15&lt;/sub&gt;" style="rounded=1;whiteSpace=wrap;html=1;fillColor=#fff2cc;strokeColor=#d6b656;" vertex="1" parent="1">
          <mxGeometry x="219.0025" y="106.77666666666667" width="25.543750000000003" height="18.45" as="geometry" />
        </mxCell>
        <mxCell id="QFvsml-NdJ4ukHGdI1pe-8" value="b&lt;sub&gt;24&lt;/sub&gt;" style="rounded=1;whiteSpace=wrap;html=1;fillColor=#e1d5e7;strokeColor=#9673a6;" vertex="1" parent="1">
          <mxGeometry x="189.00250000000005" y="106.77666666666667" width="25.543750000000003" height="18.45" as="geometry" />
        </mxCell>
        <mxCell id="QFvsml-NdJ4ukHGdI1pe-9" value="b&lt;sub&gt;21&lt;/sub&gt;" style="rounded=1;whiteSpace=wrap;html=1;fillColor=#e1d5e7;strokeColor=#9673a6;" vertex="1" parent="1">
          <mxGeometry x="249.00250000000005" y="106.77666666666667" width="25.543750000000003" height="18.45" as="geometry" />
        </mxCell>
        <mxCell id="QFvsml-NdJ4ukHGdI1pe-12" value="..." style="rounded=1;whiteSpace=wrap;html=1;fillColor=#f5f5f5;strokeColor=#666666;fontColor=#333333;" vertex="1" parent="1">
          <mxGeometry x="159.00249999999994" y="106.77666666666667" width="25.543750000000003" height="18.45" as="geometry" />
        </mxCell>
        <mxCell id="QFvsml-NdJ4ukHGdI1pe-13" value="b&lt;sub&gt;34&lt;/sub&gt;" style="rounded=1;whiteSpace=wrap;html=1;fillColor=#f8cecc;strokeColor=#b85450;" vertex="1" parent="1">
          <mxGeometry x="99.00250000000005" y="106.77666666666664" width="25.543750000000003" height="18.45" as="geometry" />
        </mxCell>
        <mxCell id="QFvsml-NdJ4ukHGdI1pe-19" value="Suite Run 1" style="text;html=1;strokeColor=none;fillColor=none;align=center;verticalAlign=middle;whiteSpace=wrap;rounded=0;fontStyle=1" vertex="1" parent="1">
          <mxGeometry x="150" y="80" width="70" height="30" as="geometry" />
        </mxCell>
        <mxCell id="QFvsml-NdJ4ukHGdI1pe-20" value="" style="rounded=0;whiteSpace=wrap;html=1;" vertex="1" parent="1">
          <mxGeometry x="290" y="83" width="193" height="49" as="geometry" />
        </mxCell>
        <mxCell id="QFvsml-NdJ4ukHGdI1pe-21" value="b&lt;sub&gt;15&lt;/sub&gt;" style="rounded=1;whiteSpace=wrap;html=1;fillColor=#fff2cc;strokeColor=#d6b656;" vertex="1" parent="1">
          <mxGeometry x="329.0025" y="106.7766666666667" width="25.543750000000003" height="18.45" as="geometry" />
        </mxCell>
        <mxCell id="QFvsml-NdJ4ukHGdI1pe-22" value="b&lt;sub&gt;13&lt;/sub&gt;" style="rounded=1;whiteSpace=wrap;html=1;fillColor=#fff2cc;strokeColor=#d6b656;" vertex="1" parent="1">
          <mxGeometry x="420.0025" y="106.77666666666667" width="25.543750000000003" height="18.45" as="geometry" />
        </mxCell>
        <mxCell id="QFvsml-NdJ4ukHGdI1pe-23" value="b&lt;sub&gt;14&lt;/sub&gt;" style="rounded=1;whiteSpace=wrap;html=1;fillColor=#fff2cc;strokeColor=#d6b656;" vertex="1" parent="1">
          <mxGeometry x="390.0025" y="106.77666666666667" width="25.543750000000003" height="18.45" as="geometry" />
        </mxCell>
        <mxCell id="QFvsml-NdJ4ukHGdI1pe-24" value="b&lt;sub&gt;31&lt;/sub&gt;" style="rounded=1;whiteSpace=wrap;html=1;fillColor=#f8cecc;strokeColor=#b85450;" vertex="1" parent="1">
          <mxGeometry x="450.0025" y="106.77666666666667" width="25.543750000000003" height="18.45" as="geometry" />
        </mxCell>
        <mxCell id="QFvsml-NdJ4ukHGdI1pe-25" value="..." style="rounded=1;whiteSpace=wrap;html=1;fillColor=#f5f5f5;strokeColor=#666666;fontColor=#333333;" vertex="1" parent="1">
          <mxGeometry x="360.0024999999999" y="106.77666666666667" width="25.543750000000003" height="18.45" as="geometry" />
        </mxCell>
        <mxCell id="QFvsml-NdJ4ukHGdI1pe-26" value="b&lt;sub&gt;21&lt;/sub&gt;" style="rounded=1;whiteSpace=wrap;html=1;fillColor=#e1d5e7;strokeColor=#9673a6;" vertex="1" parent="1">
          <mxGeometry x="300.00250000000005" y="106.77666666666664" width="25.543750000000003" height="18.45" as="geometry" />
        </mxCell>
        <mxCell id="QFvsml-NdJ4ukHGdI1pe-27" value="Suite Run ..." style="text;html=1;strokeColor=none;fillColor=none;align=center;verticalAlign=middle;whiteSpace=wrap;rounded=0;fontStyle=1" vertex="1" parent="1">
          <mxGeometry x="348" y="80" width="79" height="30" as="geometry" />
        </mxCell>
        <mxCell id="QFvsml-NdJ4ukHGdI1pe-36" value="" style="rounded=0;whiteSpace=wrap;html=1;" vertex="1" parent="1">
          <mxGeometry x="490" y="83" width="193" height="49" as="geometry" />
        </mxCell>
        <mxCell id="QFvsml-NdJ4ukHGdI1pe-37" value="b&lt;sub&gt;22&lt;/sub&gt;" style="rounded=1;whiteSpace=wrap;html=1;fillColor=#e1d5e7;strokeColor=#9673a6;" vertex="1" parent="1">
          <mxGeometry x="529.0025" y="106.7766666666667" width="25.543750000000003" height="18.45" as="geometry" />
        </mxCell>
        <mxCell id="QFvsml-NdJ4ukHGdI1pe-38" value="b&lt;sub&gt;35&lt;/sub&gt;" style="rounded=1;whiteSpace=wrap;html=1;fillColor=#f8cecc;strokeColor=#b85450;" vertex="1" parent="1">
          <mxGeometry x="620.0025" y="106.77666666666667" width="25.543750000000003" height="18.45" as="geometry" />
        </mxCell>
        <mxCell id="QFvsml-NdJ4ukHGdI1pe-39" value="b&lt;sub&gt;34&lt;/sub&gt;" style="rounded=1;whiteSpace=wrap;html=1;fillColor=#f8cecc;strokeColor=#b85450;" vertex="1" parent="1">
          <mxGeometry x="590.0025" y="106.77666666666667" width="25.543750000000003" height="18.45" as="geometry" />
        </mxCell>
        <mxCell id="QFvsml-NdJ4ukHGdI1pe-40" value="b&lt;sub&gt;31&lt;/sub&gt;" style="rounded=1;whiteSpace=wrap;html=1;fillColor=#f8cecc;strokeColor=#b85450;" vertex="1" parent="1">
          <mxGeometry x="650.0025" y="106.77666666666667" width="25.543750000000003" height="18.45" as="geometry" />
        </mxCell>
        <mxCell id="QFvsml-NdJ4ukHGdI1pe-41" value="..." style="rounded=1;whiteSpace=wrap;html=1;fillColor=#f5f5f5;strokeColor=#666666;fontColor=#333333;" vertex="1" parent="1">
          <mxGeometry x="560.0024999999998" y="106.77666666666667" width="25.543750000000003" height="18.45" as="geometry" />
        </mxCell>
        <mxCell id="QFvsml-NdJ4ukHGdI1pe-42" value="b&lt;sub&gt;14&lt;/sub&gt;" style="rounded=1;whiteSpace=wrap;html=1;fillColor=#fff2cc;strokeColor=#d6b656;" vertex="1" parent="1">
          <mxGeometry x="500.00250000000005" y="106.77666666666664" width="25.543750000000003" height="18.45" as="geometry" />
        </mxCell>
        <mxCell id="QFvsml-NdJ4ukHGdI1pe-43" value="Suite Run n" style="text;html=1;strokeColor=none;fillColor=none;align=center;verticalAlign=middle;whiteSpace=wrap;rounded=0;fontStyle=1" vertex="1" parent="1">
          <mxGeometry x="551" y="80" width="70" height="30" as="geometry" />
        </mxCell>
      </root>
    </mxGraphModel>
  </diagram>
</mxfile>
